<svg xmlns="http://www.w3.org/2000/svg" width="135.491" height="97.964" viewBox="0 0 135.491 97.964">
  <g  data-name="select and book" transform="translate(0.5 0.5)">
    <path  data-name="Path 1102" d="M185.636,204.547H165.781a2.206,2.206,0,1,0,0,4.412h19.855a2.206,2.206,0,1,0,0-4.412Zm0,0" transform="translate(-110.712 -138.47)" fill="#b70101" stroke="#b70101" stroke-width="1"/>
    <path  data-name="Path 1103" d="M75.16,178.18a2.207,2.207,0,0,0-1.808-.942H57.92a2.206,2.206,0,0,0-1.806,3.472l7.714,11.031a2.207,2.207,0,0,0,1.808.942H81.068a2.207,2.207,0,0,0,1.806-3.472Zm-8.376,10.089-4.629-6.619H72.2l4.629,6.619Zm0,0" transform="translate(-37.709 -119.986)" fill="#b70101" stroke="#b70101" stroke-width="1"/>
    <path  data-name="Path 1104" d="M138.476,67.594a2.195,2.195,0,0,0,1.376-.483l11.031-8.824a2.207,2.207,0,0,0-2.757-3.448l-11.031,8.825a2.207,2.207,0,0,0,1.381,3.93Zm0,0" transform="translate(-92.229 -36.815)" fill="#b70101" stroke="#b70101" stroke-width="1"/>
    <path  data-name="Path 1105" d="M186.261,53.736a2.194,2.194,0,0,0,1.353-.466l19.856-15.443a2.206,2.206,0,0,0-2.71-3.482L184.9,49.788a2.207,2.207,0,0,0,1.357,3.947Zm0,0" transform="translate(-124.572 -22.957)" fill="#b70101" stroke="#b70101" stroke-width="1"/>
    <path  data-name="Path 1106" d="M116.841,43.77V41.891h8.825a2.2,2.2,0,0,0,2.205-2.205V33.153a6.711,6.711,0,0,0-6.7-6.7H111.75A33.146,33.146,0,0,0,79.347.082H48.524a33.146,33.146,0,0,0-32.4,26.366H7.35A7.361,7.361,0,0,0,0,33.8v5.887a2.2,2.2,0,0,0,2.207,2.205h8.738v6.9a8.838,8.838,0,0,0-6.619,8.545V83.809a8.834,8.834,0,0,0,8.825,8.825h4.412a8.834,8.834,0,0,0,8.824-8.825H83.4A27.553,27.553,0,1,0,116.841,43.77ZM48.524,4.495H79.347a28.71,28.71,0,0,1,28.675,28.567l0,2.212H19.844v-2.1a28.713,28.713,0,0,1,28.68-28.68ZM24.182,79.4H17.563a2.207,2.207,0,1,0,0,4.413h4.412a4.418,4.418,0,0,1-4.412,4.412H13.151a4.419,4.419,0,0,1-4.413-4.412V57.335a4.418,4.418,0,0,1,4.413-4.412,2.2,2.2,0,0,0,2.205-2.207V39.685a2.2,2.2,0,0,0-2.205-2.205H4.412V33.8A2.942,2.942,0,0,1,7.35,30.861h8.062l-.056,6.6a2.209,2.209,0,0,0,2.205,2.227h92.671a2.206,2.206,0,0,0,2.207-2.207v-4.3c0-.034-.005-.066-.005-.1l0-2.214h8.731a2.293,2.293,0,0,1,2.291,2.291V37.48h-8.824a2.2,2.2,0,0,0-2.207,2.205v2.762A27.524,27.524,0,0,0,81.214,79.4Zm82.732,13.237a23.165,23.165,0,1,1,23.165-23.165,23.19,23.19,0,0,1-23.165,23.165Zm0,0" transform="translate(0.001 -0.082)" fill="#b70101" stroke="#b70101" stroke-width="1"/>
    <path  data-name="Path 1107" d="M315.885,177.989l-13.651,15.6-4.985-6.646a2.205,2.205,0,0,0-3.53,2.645l6.619,8.825a2.2,2.2,0,0,0,1.68.881c.029,0,.057,0,.085,0a2.209,2.209,0,0,0,1.661-.754l15.443-17.649a2.206,2.206,0,1,0-3.321-2.9Zm0,0" transform="translate(-198.498 -119.983)" fill="#b70101" stroke="#b70101" stroke-width="1"/>
  </g>
</svg>
