<svg xmlns="http://www.w3.org/2000/svg" width="131.752" height="131.547" viewBox="0 0 131.752 131.547">
  <g  data-name="nice trip" transform="translate(0.352 0.25)">
    <g  transform="translate(0 0)">
      <path  d="M240.221,189.945a8.276,8.276,0,1,0-8.276,8.276A8.285,8.285,0,0,0,240.221,189.945Zm-11.433,0a3.157,3.157,0,1,1,3.157,3.157A3.16,3.16,0,0,1,228.789,189.945Z" transform="translate(-166.421 -135.171)" fill="#b70101" stroke="#b70101" stroke-width="0.5"/>
      <path  d="M130.849,95.122l-4.207-10.046,2.287-3.485a11.994,11.994,0,0,0,1.534-9.767l-2.126-7.708a14.3,14.3,0,0,0-6-8.2,2.556,2.556,0,0,0-1.59-.4A55.385,55.385,0,0,0,76.29,3.918,2.56,2.56,0,0,0,75.3,8.94,50.25,50.25,0,0,1,115.69,58.155c0,.708-.02,1.42-.05,2.13L110.3,63.139a45.626,45.626,0,0,0,.275-4.984,45.129,45.129,0,0,0-.739-8.14c-.01-.072-.025-.144-.041-.214a45.049,45.049,0,0,0-88.54.027c-.013.06-.026.119-.035.18a45.121,45.121,0,0,0-.74,8.148,45.621,45.621,0,0,0,.275,4.984L15.4,60.283c-.029-.707-.047-1.42-.047-2.128A50.238,50.238,0,0,1,55.811,8.928,2.56,2.56,0,0,0,54.825,3.9,55.371,55.371,0,0,0,10.3,55.513a2.556,2.556,0,0,0-1.59.4,14.3,14.3,0,0,0-6,8.2L.585,71.824a11.993,11.993,0,0,0,1.534,9.767l2.287,3.485L.2,95.122A2.56,2.56,0,1,0,4.921,97.1L8.835,87.75,19.968,90.1l-9.66,40.667a2.559,2.559,0,1,0,4.98,1.183l8.83-37.17a55.234,55.234,0,0,0,82.813,0l8.829,37.167a2.559,2.559,0,1,0,4.98-1.183L111.08,90.1l11.132-2.348,3.915,9.349a2.56,2.56,0,1,0,4.722-1.977ZM119.97,63.775a2.561,2.561,0,0,0,.96-.894l.593-.941a9.193,9.193,0,0,1,1.879,3.537l2.126,7.708a6.874,6.874,0,0,1-.879,5.6l-2.454,3.74-13.36,2.819-2.366-2.432a9.741,9.741,0,0,1-2.773-6.828V69.908a1.662,1.662,0,0,1,1.248-1.61l.6-.156a6.2,6.2,0,0,0,6.018.123Zm-87.8,4.138h15.2a8.44,8.44,0,0,1,8.43,8.43v20.55a39.716,39.716,0,0,1-23.8-17.06,14.973,14.973,0,0,0,.478-3.753V69.908A6.775,6.775,0,0,0,32.167,67.914Zm15.2-5.119h-21.5A40.149,40.149,0,0,1,26,52.47L51.991,46.2a57.965,57.965,0,0,1,27.066,0l25.989,6.27a40.037,40.037,0,0,1,.138,10.325H83.68A13.565,13.565,0,0,0,70.131,76.344V97.817a40,40,0,0,1-9.214,0V76.344A13.565,13.565,0,0,0,47.368,62.795ZM75.25,76.344a8.44,8.44,0,0,1,8.43-8.43h15.2a6.767,6.767,0,0,0-.3,1.994v6.173a14.973,14.973,0,0,0,.478,3.753,39.715,39.715,0,0,1-23.8,17.06ZM65.524,18.227a40,40,0,0,1,38.314,28.685l-23.581-5.69a63.108,63.108,0,0,0-29.467,0L27.21,46.912A40,40,0,0,1,65.524,18.227Zm-60,54.958,2.126-7.708A9.2,9.2,0,0,1,9.525,61.94l.593.941a2.563,2.563,0,0,0,.96.894l8.407,4.49a6.2,6.2,0,0,0,6.018-.123l.6.156a1.662,1.662,0,0,1,1.248,1.61v6.173a9.741,9.741,0,0,1-2.773,6.828l-2.366,2.432L8.853,82.523,6.4,78.783A6.873,6.873,0,0,1,5.519,73.185Zm60,35.137A50.27,50.27,0,0,1,25.89,88.9l2.359-2.425A15.157,15.157,0,0,0,29.429,85.1a45.022,45.022,0,0,0,72.189,0,15.083,15.083,0,0,0,1.181,1.376l2.361,2.427A50.41,50.41,0,0,1,65.524,108.322Z" transform="translate(0 -2.87)" fill="#b70101" stroke="#b70101" stroke-width="0.5"/>
      <path  d="M248.563,5.121h.063a2.56,2.56,0,0,0,0-5.119h-.063a2.56,2.56,0,0,0,0,5.119Z" transform="translate(-183.038 -0.002)" fill="#b70101" stroke="#b70101" stroke-width="0.5"/>
    </g>
  </g>
</svg>
