<svg  data-name="find your ride" xmlns="http://www.w3.org/2000/svg" width="122.311" height="117.773" viewBox="0 0 122.311 117.773">
  <path  data-name="Path 1099" d="M47.094,117.133a47.1,47.1,0,0,0,32.3,12.732c.569,0,1.142-.01,1.714-.03a47.088,47.088,0,0,0,26.58-9.29L139.8,150.474q.151.14.307.273a8.554,8.554,0,0,0,5.565,2.042c.1,0,.208,0,.312-.005a8.624,8.624,0,0,0,5.576-14.929l-32.119-29.931a47.439,47.439,0,1,0-72.349,9.208Zm101.528,23.879a4.312,4.312,0,0,1-5.88,6.31l-22.083-20.58,5.879-6.31Zm-25.238-23.52-5.88,6.31-6.452-6.013q1.6-1.434,3.083-3.022t2.8-3.288ZM47.884,53.03a43.126,43.126,0,0,1,67.034,53.911c-.013.018-.025.036-.038.054a43.765,43.765,0,0,1-8.478,9.09l-.011.009A43.126,43.126,0,0,1,47.884,53.03Z" transform="translate(-31.997 -35.016)" fill="#b70101"/>
  <path  data-name="Path 1100" d="M82.156,142.964h4.585a8.624,8.624,0,0,0,16.7,0H123.4a8.624,8.624,0,0,0,16.824-.551l5.146-1.715a2.156,2.156,0,0,0,1.474-2.045v-6.468a8.639,8.639,0,0,0-7.236-8.513l-2.208-4.416a7.774,7.774,0,0,0-6.991-4.32H108.7a7.853,7.853,0,0,0-6.253,3.126l-4.221,5.628-10.675,1.334A8.638,8.638,0,0,0,80,133.581v7.227a2.156,2.156,0,0,0,2.156,2.156Zm12.937,2.156a4.312,4.312,0,1,1,4.312-4.312A4.312,4.312,0,0,1,95.093,145.12Zm36.654,0a4.312,4.312,0,1,1,4.312-4.312A4.312,4.312,0,0,1,131.747,145.12Zm-6.468-25.873H130.4a3.484,3.484,0,0,1,3.134,1.937l1.188,2.375h-9.448Zm-19.378,1.4a3.519,3.519,0,0,1,2.8-1.4h12.263v4.312H103.717ZM84.312,133.581A4.319,4.319,0,0,1,88.09,129.3l11.449-1.431h38.676a4.317,4.317,0,0,1,4.312,4.312V137.1l-2.636.879a8.624,8.624,0,0,0-16.5.675H103.444a8.624,8.624,0,0,0-16.7,0H84.312Z" transform="translate(-67.063 -93.396)" fill="#b70101"/>
  <path  data-name="Path 1101" d="M161.59,258.935H114.156A2.156,2.156,0,0,0,112,261.091v8.624a2.156,2.156,0,0,0,2.156,2.156H161.59a2.156,2.156,0,0,0,2.156-2.156v-8.624A2.156,2.156,0,0,0,161.59,258.935Zm-10.781,8.624h-34.5v-4.312h34.5Zm8.624,0h-4.312v-4.312h4.312Z" transform="translate(-90.438 -198.586)" fill="#b70101"/>
</svg>
